<?xml version="1.0" encoding="UTF-8"?>
<svg width="512" height="512" viewBox="0 0 512 512" fill="none" xmlns="http://www.w3.org/2000/svg">
  <rect width="512" height="512" rx="100" fill="#4F46E5"/>
  <path d="M256 120C194.1 120 144 170.1 144 232C144 280.6 169.4 321.2 211.5 345.3L256 392L300.5 345.3C342.6 321.2 368 280.6 368 232C368 170.1 317.9 120 256 120ZM256 312C212.7 312 176 275.3 176 232C176 188.7 212.7 152 256 152C299.3 152 336 188.7 336 232C336 275.3 299.3 312 256 312Z" fill="white"/>
  <circle cx="256" cy="232" r="40" fill="white"/>
</svg>
