<?xml version="1.0" standalone="no"?>
<!DOCTYPE svg PUBLIC "-//W3C//DTD SVG 20010904//EN"
 "http://www.w3.org/TR/2001/REC-SVG-20010904/DTD/svg10.dtd">
<svg version="1.0" xmlns="http://www.w3.org/2000/svg"
 width="1024.000000pt" height="1024.000000pt" viewBox="0 0 1024.000000 1024.000000"
 preserveAspectRatio="xMidYMid meet">

<g transform="translate(0.000000,1024.000000) scale(0.100000,-0.100000)"
fill="#000000" stroke="none">
<path d="M6295 8476 c-193 -44 -324 -115 -456 -247 -83 -82 -103 -110 -147
-196 -73 -146 -97 -257 -89 -416 8 -171 45 -280 175 -512 128 -231 549 -861
654 -980 34 -39 75 -46 101 -17 25 28 362 539 492 747 233 371 290 489 321
655 66 362 -126 723 -476 896 -120 59 -197 76 -365 80 -104 2 -169 -1 -210
-10z m357 -454 c300 -148 358 -493 120 -713 -37 -34 -95 -75 -130 -92 -266
-125 -602 98 -602 400 0 153 68 281 193 367 88 61 145 77 258 73 84 -2 103 -6
161 -35z"/>
<path d="M7830 7308 c-80 -38 -217 -104 -305 -145 -88 -41 -170 -84 -182 -96
-23 -23 -87 -122 -187 -290 l-57 -96 3 -586 c3 -582 3 -586 -17 -582 -20 5
-424 180 -494 215 -34 16 -36 20 -39 73 -2 44 -8 61 -27 79 -32 30 -104 33
-134 6 -24 -22 -14 -27 -131 74 -65 55 -468 406 -554 481 l-29 26 -1 269 -2
269 -64 114 c-36 63 -72 119 -81 124 -11 7 -51 -8 -155 -58 -76 -37 -199 -97
-273 -132 l-134 -64 -71 30 c-285 121 -285 121 -331 87 -19 -14 -20 -28 -23
-543 -2 -290 0 -552 3 -582 9 -70 38 -101 94 -101 56 0 89 18 100 54 5 18 8
227 7 483 -1 445 -1 453 18 447 11 -4 59 -26 106 -50 48 -24 96 -44 106 -44
10 0 122 52 249 115 126 63 233 115 237 115 4 0 8 -140 8 -311 l0 -311 -197
-219 c-299 -332 -293 -324 -293 -384 0 -52 24 -112 51 -128 35 -22 66 4 229
191 91 104 175 202 187 218 l22 29 0 -495 0 -495 -186 -90 c-103 -49 -200
-101 -216 -114 -27 -23 -29 -28 -23 -74 3 -27 12 -60 21 -73 33 -50 52 -45
292 75 l223 111 423 -212 422 -213 70 1 c39 0 95 3 125 7 293 33 509 62 559
73 24 6 161 68 426 195 61 28 180 85 265 125 85 40 165 82 178 93 l22 19 0
1166 c0 1288 5 1197 -63 1195 -18 0 -96 -31 -177 -71z m50 -607 c0 -473 18
-398 -140 -571 -53 -58 -171 -189 -263 -293 l-167 -187 0 594 c0 465 3 597 13
603 19 12 541 261 550 262 4 1 7 -183 7 -408z m-2100 -584 c25 -23 84 -76 130
-117 132 -116 298 -268 373 -339 l67 -65 0 -413 c0 -227 -1 -413 -3 -413 -12
0 -663 334 -669 343 -9 14 -11 1011 -2 1056 l6 31 27 -21 c14 -11 46 -39 71
-62z m2100 -575 l0 -418 -276 -135 c-151 -73 -280 -135 -285 -137 -5 -2 -9 98
-9 251 l0 254 177 194 c285 314 375 409 384 409 5 0 9 -183 9 -418z m-803
-246 c22 -7 22 -9 25 -258 3 -214 1 -251 -12 -258 -12 -6 -168 -28 -482 -66
l-48 -6 0 410 0 410 248 -113 c136 -62 257 -115 269 -119z"/>
<path d="M3406 6271 c-146 -51 -176 -71 -176 -118 0 -38 17 -60 55 -73 57 -19
64 -39 71 -202 4 -88 3 -147 -2 -151 -6 -3 -37 3 -69 14 -83 27 -227 27 -316
0 -168 -53 -294 -190 -345 -376 -9 -33 -18 -103 -21 -155 -6 -113 18 -234 66
-329 38 -75 125 -169 188 -203 158 -86 357 -73 476 31 l36 32 14 -33 c8 -18
24 -41 35 -51 30 -27 121 -32 222 -13 99 18 133 45 128 100 -2 25 -13 37 -52
63 -28 18 -55 40 -60 50 -8 12 -11 242 -11 708 -1 380 -4 699 -8 711 -8 22
-46 44 -75 43 -9 0 -80 -22 -156 -48z m-175 -687 c43 -22 87 -81 106 -142 15
-47 18 -94 18 -272 0 -200 -2 -218 -22 -256 -47 -89 -123 -132 -208 -120 -119
18 -187 133 -206 350 -13 146 2 267 42 347 22 45 80 97 117 105 15 3 32 7 37
9 18 6 89 -7 116 -21z"/>
<path d="M1352 6223 c-30 -6 -56 -46 -48 -77 3 -14 26 -41 50 -61 33 -27 47
-47 55 -80 14 -57 15 -1095 1 -1145 -6 -21 -30 -53 -60 -81 -54 -50 -61 -73
-31 -110 l19 -24 541 -3 c298 -1 556 1 574 6 30 8 34 13 55 88 12 43 27 120
34 169 9 79 9 95 -6 123 -28 55 -89 57 -121 4 -73 -120 -103 -157 -146 -180
-64 -32 -156 -44 -323 -40 -123 3 -148 6 -163 21 -16 16 -18 41 -18 265 l0
247 130 3 c108 2 136 -1 165 -15 31 -16 74 -65 106 -119 7 -12 22 -18 48 -18
65 0 67 9 64 253 l-3 215 -26 15 c-42 23 -70 8 -104 -56 -44 -82 -93 -106
-233 -111 -83 -4 -107 -1 -128 12 l-25 17 3 240 c3 227 4 241 23 256 16 12 51
14 195 11 158 -4 180 -6 223 -27 48 -23 101 -79 130 -136 35 -70 95 -89 142
-45 30 28 31 58 11 177 -22 122 -36 166 -63 191 l-24 22 -512 -1 c-282 -1
-522 -4 -535 -6z"/>
<path d="M3943 5730 c-67 -16 -131 -34 -143 -40 -29 -15 -28 -84 1 -108 12 -9
33 -27 48 -39 l26 -21 5 -319 c5 -306 6 -320 29 -378 56 -139 186 -214 353
-202 95 6 162 36 237 103 45 40 52 43 57 27 17 -50 48 -104 64 -113 22 -12
173 -5 224 10 49 15 86 52 86 86 0 19 -14 39 -47 70 l-48 43 -5 433 c-3 238
-9 439 -13 446 -20 30 -56 32 -170 11 -205 -39 -208 -41 -210 -94 -1 -30 5
-42 28 -61 79 -64 78 -62 73 -376 -3 -209 -6 -238 -24 -278 -37 -82 -121 -128
-208 -117 -51 7 -86 33 -111 83 -19 37 -20 62 -23 431 l-3 392 -26 21 c-33 26
-52 25 -200 -10z"/>
<path d="M1657 4372 c-27 -30 -20 -59 26 -109 l42 -46 3 -551 c2 -303 0 -571
-3 -596 -5 -34 -16 -53 -45 -81 -49 -46 -62 -72 -54 -105 13 -53 29 -54 561
-53 268 1 499 4 512 8 35 9 58 62 86 195 39 180 33 221 -32 240 -34 11 -48 -2
-116 -105 -75 -114 -116 -143 -227 -160 -90 -14 -245 -7 -285 12 -55 26 -55
20 -55 604 0 318 4 554 10 574 5 18 27 50 50 71 29 27 40 45 40 66 0 53 -5 54
-260 54 -217 0 -238 -2 -253 -18z"/>
<path d="M6743 4183 c-105 -125 -153 -170 -210 -197 -109 -51 -108 -49 -111
-87 -5 -56 21 -79 95 -86 l62 -6 4 -381 c2 -259 7 -393 16 -418 21 -66 72
-129 131 -162 47 -26 66 -31 147 -34 69 -3 106 0 145 13 131 42 262 182 229
244 -18 33 -45 33 -112 1 -70 -33 -144 -40 -189 -17 -14 7 -34 30 -45 52 -19
37 -20 64 -23 373 l-3 332 144 0 c131 0 147 2 171 21 21 16 26 29 26 63 0 23
-5 47 -12 54 -8 8 -60 12 -170 12 l-158 0 0 120 c0 110 -2 121 -22 140 -37 34
-62 26 -115 -37z"/>
<path d="M3301 3964 c-192 -42 -353 -193 -413 -389 -26 -84 -30 -249 -9 -335
20 -83 75 -191 125 -247 61 -68 159 -130 253 -160 98 -32 252 -36 352 -10 169
45 303 150 371 291 21 45 44 104 50 131 15 66 15 231 0 297 -72 312 -390 496
-729 422z m194 -151 c137 -46 227 -233 228 -473 2 -185 -47 -301 -145 -349
-87 -42 -210 -14 -274 62 -43 51 -91 162 -104 239 -19 108 -8 289 20 363 28
72 90 140 145 160 52 19 72 18 130 -2z"/>
<path d="M4605 3964 c-83 -16 -192 -69 -257 -125 -63 -53 -143 -175 -169 -257
-30 -93 -37 -262 -15 -356 59 -253 271 -417 541 -419 153 -2 278 44 385 140
103 92 139 184 85 219 -32 21 -60 13 -110 -29 -75 -64 -148 -87 -259 -83 -93
3 -161 33 -221 97 -154 165 -163 458 -20 607 51 52 51 52 114 52 35 0 74 -6
90 -14 39 -21 86 -77 121 -146 38 -76 78 -104 145 -104 91 0 145 52 145 141
-1 207 -270 337 -575 277z"/>
<path d="M5680 3969 c-123 -21 -259 -110 -304 -201 -47 -93 -25 -176 53 -199
35 -10 45 -9 84 10 37 18 50 32 72 79 53 114 100 152 185 152 124 0 196 -103
188 -272 l-3 -63 -175 -6 c-191 -7 -238 -17 -336 -77 -101 -63 -147 -146 -148
-267 -1 -126 46 -216 141 -267 161 -87 375 -62 503 58 l35 34 35 -47 c45 -61
97 -87 182 -91 76 -5 117 6 181 49 73 48 91 125 32 142 -60 18 -100 43 -120
77 -18 32 -21 58 -26 300 -7 283 -14 329 -64 416 -81 140 -290 210 -515 173z
m276 -666 c9 -48 -1 -182 -16 -215 -16 -34 -72 -73 -126 -87 -45 -12 -125 -1
-155 22 -34 26 -59 81 -59 132 0 102 71 173 182 184 35 3 86 4 115 3 51 -4 53
-5 59 -39z"/>
<path d="M7700 3970 c-156 -33 -296 -145 -370 -295 -87 -176 -76 -437 26 -612
42 -73 143 -167 216 -201 167 -78 361 -77 523 5 74 38 182 149 191 198 15 81
-45 121 -109 72 -111 -84 -249 -109 -374 -66 -105 35 -172 111 -204 230 -22
84 -41 79 321 79 l322 0 30 31 31 30 -6 92 c-6 113 -25 176 -75 253 -82 127
-194 184 -372 190 -58 2 -125 -1 -150 -6z m176 -159 c23 -10 54 -35 69 -54 51
-68 74 -206 38 -226 -10 -5 -103 -10 -208 -12 l-190 -4 1 65 c1 171 155 292
290 231z"/>
</g>
</svg>
